<svg width="200" height="200" viewBox="0 0 200 200" xmlns="http://www.w3.org/2000/svg">
  <g fill="none" stroke="#8B4513" stroke-width="0.8">
    <circle cx="0" cy="0" r="160" />
    <circle cx="0" cy="0" r="140" />
    <circle cx="0" cy="0" r="120" />
    <circle cx="0" cy="0" r="100" />
    <circle cx="0" cy="0" r="80" />
    <circle cx="0" cy="0" r="60" />
    <circle cx="0" cy="0" r="40" />
    <circle cx="0" cy="0" r="20" />
    
    <line x1="0" y1="0" x2="200" y2="0" />
    <line x1="0" y1="0" x2="180" y2="20" />
    <line x1="0" y1="0" x2="160" y2="40" />
    <line x1="0" y1="0" x2="140" y2="60" />
    <line x1="0" y1="0" x2="120" y2="80" />
    <line x1="0" y1="0" x2="100" y2="100" />
    <line x1="0" y1="0" x2="80" y2="120" />
    <line x1="0" y1="0" x2="60" y2="140" />
    <line x1="0" y1="0" x2="40" y2="160" />
    <line x1="0" y1="0" x2="20" y2="180" />
    <line x1="0" y1="0" x2="0" y2="200" />
    
    <!-- Paisley elements -->
    <path d="M40,20 C50,30 60,25 45,45 C30,65 35,70 40,60 C45,70 55,65 40,45 C25,25 35,30 40,20Z" 
      fill="#D1913C" fill-opacity="0.3" stroke="#8B4513" stroke-width="0.5" />
    
    <path d="M70,50 C80,60 90,55 75,75 C60,95 65,100 70,90 C75,100 85,95 70,75 C55,55 65,60 70,50Z" 
      fill="#D1913C" fill-opacity="0.3" stroke="#8B4513" stroke-width="0.5" />
    
    <path d="M100,80 C110,90 120,85 105,105 C90,125 95,130 100,120 C105,130 115,125 100,105 C85,85 95,90 100,80Z" 
      fill="#D1913C" fill-opacity="0.3" stroke="#8B4513" stroke-width="0.5" />
    
    <!-- Floral elements -->
    <circle cx="20" cy="40" r="5" fill="#E6C281" fill-opacity="0.4" />
    <circle cx="50" cy="70" r="4" fill="#E6C281" fill-opacity="0.4" />
    <circle cx="80" cy="100" r="6" fill="#E6C281" fill-opacity="0.4" />
    <circle cx="110" cy="130" r="3" fill="#E6C281" fill-opacity="0.4" />
  </g>
</svg>