<svg width="100" height="100" viewBox="0 0 100 100" xmlns="http://www.w3.org/2000/svg">
  <defs>
    <pattern id="paisley" width="100" height="100" patternUnits="userSpaceOnUse">
      <path d="M50,10 C60,30 80,20 50,50 C20,80 40,90 50,70 C60,90 80,80 50,50 C20,20 40,30 50,10Z" 
        fill="#D1913C" fill-opacity="0.2" stroke="#8B4513" stroke-width="0.5" />
      <path d="M0,50 C10,70 30,60 0,90 C-30,120 -10,130 0,110 C10,130 30,120 0,90 C-30,60 -10,70 0,50Z" 
        fill="#D1913C" fill-opacity="0.15" stroke="#8B4513" stroke-width="0.5" />
      <path d="M100,50 C110,70 130,60 100,90 C70,120 90,130 100,110 C110,130 130,120 100,90 C70,60 90,70 100,50Z" 
        fill="#D1913C" fill-opacity="0.15" stroke="#8B4513" stroke-width="0.5" />
      <path d="M50,100 C60,120 80,110 50,140 C20,170 40,180 50,160 C60,180 80,170 50,140 C20,110 40,120 50,100Z" 
        fill="#D1913C" fill-opacity="0.15" stroke="#8B4513" stroke-width="0.5" />
      <path d="M50,-40 C60,-20 80,-30 50,0 C20,30 40,40 50,20 C60,40 80,30 50,0 C20,-30 40,-20 50,-40Z" 
        fill="#D1913C" fill-opacity="0.15" stroke="#8B4513" stroke-width="0.5" />
    </pattern>
  </defs>
  <rect width="100%" height="100%" fill="url(#paisley)" />
</svg>